<svg width="109" height="129" viewBox="0 0 109 129" fill="none" xmlns="http://www.w3.org/2000/svg">
<circle cx="54.5" cy="74.5" r="54.5" fill="url(#paint0_radial_888_263)" fill-opacity="0.5"/>
<circle cx="54.5" cy="74.5" r="37.5" fill="url(#paint1_radial_888_263)" fill-opacity="0.7"/>
<circle cx="54.5" cy="74.5" r="24.5" fill="url(#paint2_radial_888_263)" fill-opacity="0.83"/>
<circle cx="54.5" cy="74.5" r="13.5" fill="white" fill-opacity="0.4"/>
<path fillRule="evenodd" clipRule="evenodd" d="M64.4066 66.77C72.6351 56.2535 83 40.9747 83 30.7373C83 13.7616 70.2401 0 54.5 0C38.7599 0 26 13.7616 26 30.7373C26 40.9747 36.3649 56.2535 44.5934 66.77C48.8864 72.2567 51.0329 75 54.5 75C57.9671 75 60.1136 72.2567 64.4066 66.77ZM54.5 42.846C48.5975 42.846 43.8125 38.0503 43.8125 32.1345C43.8125 26.2187 48.5975 21.423 54.5 21.423C60.4025 21.423 65.1875 26.2187 65.1875 32.1345C65.1875 38.0503 60.4025 42.846 54.5 42.846Z" fill="url(#paint3_linear_888_263)"/>
<defs>
<radialGradient id="paint0_radial_888_263" cx="0" cy="0" r="1" gradientUnits="userSpaceOnUse" gradientTransform="translate(54.5 74.5) rotate(90) scale(54.5)">
<stop offset="0.515625" stop-color="white" stop-opacity="0"/>
<stop offset="1" stop-color="white" stop-opacity="0.66"/>
</radialGradient>
<radialGradient id="paint1_radial_888_263" cx="0" cy="0" r="1" gradientUnits="userSpaceOnUse" gradientTransform="translate(54.5 74.5) rotate(90) scale(37.5)">
<stop offset="0.515625" stop-color="white" stop-opacity="0"/>
<stop offset="1" stop-color="white" stop-opacity="0.66"/>
</radialGradient>
<radialGradient id="paint2_radial_888_263" cx="0" cy="0" r="1" gradientUnits="userSpaceOnUse" gradientTransform="translate(54.5 74.5) rotate(90) scale(24.5)">
<stop offset="0.515625" stop-color="white" stop-opacity="0"/>
<stop offset="1" stop-color="white" stop-opacity="0.66"/>
</radialGradient>
<linearGradient id="paint3_linear_888_263" x1="63" y1="75" x2="26" y2="4.5" gradientUnits="userSpaceOnUse">
<stop stop-color="white"/>
<stop offset="1" stop-color="#BDBDBD"/>
</linearGradient>
</defs>
</svg>
